<svg xmlns="http://www.w3.org/2000/svg" xmlns:xlink="http://www.w3.org/1999/xlink" contentStyleType="text/css" data-diagram-type="CLASS" height="1349px" preserveAspectRatio="none" style="width:899px;height:1349px;background:#FFFFFF;" version="1.1" viewBox="0 0 899 1349" width="899px" zoomAndPan="magnify"><defs/><g><!--class IDPointer--><g id="elem_IDPointer"><rect codeLine="1" fill="#F1F1F1" height="64.2969" id="IDPointer" rx="2.5" ry="2.5" style="stroke:#181818;stroke-width:0.5;" width="96.5381" x="157.26" y="64.04"/><ellipse cx="172.26" cy="80.04" fill="#ADD1B2" rx="11" ry="11" style="stroke:#181818;stroke-width:1;"/><path d="M175.2288,85.6806 Q174.6506,85.9775 174.01,86.1181 Q173.3694,86.2744 172.6663,86.2744 Q170.1663,86.2744 168.8381,84.6338 Q167.5256,82.9775 167.5256,79.8525 Q167.5256,76.7275 168.8381,75.0713 Q170.1663,73.415 172.6663,73.415 Q173.3694,73.415 174.01,73.5713 Q174.6663,73.7275 175.2288,74.0244 L175.2288,76.7431 Q174.6038,76.165 174.01,75.8994 Q173.4163,75.6181 172.7913,75.6181 Q171.4475,75.6181 170.76,76.6963 Q170.0725,77.7588 170.0725,79.8525 Q170.0725,81.9463 170.76,83.0244 Q171.4475,84.0869 172.7913,84.0869 Q173.4163,84.0869 174.01,83.8213 Q174.6038,83.54 175.2288,82.9619 L175.2288,85.6806 Z " fill="#000000"/><text fill="#000000" font-family="sans-serif" font-size="14" lengthAdjust="spacing" textLength="64.5381" x="186.26" y="84.8867">IDPointer</text><line style="stroke:#181818;stroke-width:0.5;" x1="158.26" x2="252.7981" y1="96.04" y2="96.04"/><text fill="#000000" font-family="sans-serif" font-size="14" lengthAdjust="spacing" textLength="38.2402" x="163.26" y="113.0351">value</text><line style="stroke:#181818;stroke-width:0.5;" x1="158.26" x2="252.7981" y1="120.3369" y2="120.3369"/></g><!--class ListPointer--><g id="elem_ListPointer"><rect codeLine="5" fill="#F1F1F1" height="64.2969" id="ListPointer" rx="2.5" ry="2.5" style="stroke:#181818;stroke-width:0.5;" width="106.1016" x="288.48" y="64.04"/><ellipse cx="303.48" cy="80.04" fill="#ADD1B2" rx="11" ry="11" style="stroke:#181818;stroke-width:1;"/><path d="M306.4488,85.6806 Q305.8706,85.9775 305.23,86.1181 Q304.5894,86.2744 303.8863,86.2744 Q301.3863,86.2744 300.0581,84.6338 Q298.7456,82.9775 298.7456,79.8525 Q298.7456,76.7275 300.0581,75.0713 Q301.3863,73.415 303.8863,73.415 Q304.5894,73.415 305.23,73.5713 Q305.8863,73.7275 306.4488,74.0244 L306.4488,76.7431 Q305.8238,76.165 305.23,75.8994 Q304.6363,75.6181 304.0113,75.6181 Q302.6675,75.6181 301.98,76.6963 Q301.2925,77.7588 301.2925,79.8525 Q301.2925,81.9463 301.98,83.0244 Q302.6675,84.0869 304.0113,84.0869 Q304.6363,84.0869 305.23,83.8213 Q305.8238,83.54 306.4488,82.9619 L306.4488,85.6806 Z " fill="#000000"/><text fill="#000000" font-family="sans-serif" font-size="14" lengthAdjust="spacing" textLength="74.1016" x="317.48" y="84.8867">ListPointer</text><line style="stroke:#181818;stroke-width:0.5;" x1="289.48" x2="393.5816" y1="96.04" y2="96.04"/><text fill="#000000" font-family="sans-serif" font-size="14" lengthAdjust="spacing" textLength="38.2402" x="294.48" y="113.0351">value</text><line style="stroke:#181818;stroke-width:0.5;" x1="289.48" x2="393.5816" y1="120.3369" y2="120.3369"/></g><!--class DrainagePoint--><g id="elem_DrainagePoint"><rect codeLine="9" fill="#F1F1F1" height="341.3438" id="DrainagePoint" rx="2.5" ry="2.5" style="stroke:#181818;stroke-width:0.5;" width="160.1621" x="149.45" y="262.38"/><ellipse cx="177.4754" cy="278.38" fill="#ADD1B2" rx="11" ry="11" style="stroke:#181818;stroke-width:1;"/><path d="M180.4441,284.0206 Q179.866,284.3175 179.2254,284.4581 Q178.5848,284.6144 177.8816,284.6144 Q175.3816,284.6144 174.0535,282.9738 Q172.741,281.3175 172.741,278.1925 Q172.741,275.0675 174.0535,273.4113 Q175.3816,271.755 177.8816,271.755 Q178.5848,271.755 179.2254,271.9113 Q179.8816,272.0675 180.4441,272.3644 L180.4441,275.0831 Q179.8191,274.505 179.2254,274.2394 Q178.6316,273.9581 178.0066,273.9581 Q176.6629,273.9581 175.9754,275.0363 Q175.2879,276.0988 175.2879,278.1925 Q175.2879,280.2863 175.9754,281.3644 Q176.6629,282.4269 178.0066,282.4269 Q178.6316,282.4269 179.2254,282.1613 Q179.8191,281.88 180.4441,281.3019 L180.4441,284.0206 Z " fill="#000000"/><text fill="#000000" font-family="sans-serif" font-size="14" lengthAdjust="spacing" textLength="99.2168" x="194.3699" y="283.2267">DrainagePoint</text><line style="stroke:#181818;stroke-width:0.5;" x1="150.45" x2="308.6121" y1="294.38" y2="294.38"/><text fill="#000000" font-family="sans-serif" font-size="14" lengthAdjust="spacing" textLength="35.7588" x="155.45" y="311.3751">i : int</text><text fill="#000000" font-family="sans-serif" font-size="14" lengthAdjust="spacing" textLength="35.7588" x="155.45" y="327.672">j : int</text><text fill="#000000" font-family="sans-serif" font-size="14" lengthAdjust="spacing" textLength="54.6602" x="155.45" y="343.9689">Z : float</text><text fill="#000000" font-family="sans-serif" font-size="14" lengthAdjust="spacing" textLength="74.8945" x="155.45" y="360.2657">id_pnt : int</text><text fill="#000000" font-family="sans-serif" font-size="14" lengthAdjust="spacing" textLength="105.5059" x="155.45" y="376.5626">fldir : IDPointer</text><text fill="#000000" font-family="sans-serif" font-size="14" lengthAdjust="spacing" textLength="127.0938" x="155.45" y="392.8595">fldir_ss : IDPointer</text><text fill="#000000" font-family="sans-serif" font-size="14" lengthAdjust="spacing" textLength="61.209" x="155.45" y="409.1564">A_in : int</text><text fill="#000000" font-family="sans-serif" font-size="14" lengthAdjust="spacing" textLength="66.7188" x="155.45" y="425.4532">upl : float</text><text fill="#000000" font-family="sans-serif" font-size="14" lengthAdjust="spacing" textLength="66.7324" x="155.45" y="441.7501">dpl : float</text><text fill="#000000" font-family="sans-serif" font-size="14" lengthAdjust="spacing" textLength="100.6592" x="155.45" y="458.047">sumdev : float</text><text fill="#000000" font-family="sans-serif" font-size="14" lengthAdjust="spacing" textLength="86.584" x="155.45" y="474.3439">id_endo : int</text><text fill="#000000" font-family="sans-serif" font-size="14" lengthAdjust="spacing" textLength="58.4336" x="155.45" y="490.6407">ninf : int</text><text fill="#000000" font-family="sans-serif" font-size="14" lengthAdjust="spacing" textLength="129.3154" x="155.45" y="506.9376">inflow : ListPointer</text><text fill="#000000" font-family="sans-serif" font-size="14" lengthAdjust="spacing" textLength="137.1152" x="155.45" y="523.2345">Linflow : ListPointer</text><text fill="#000000" font-family="sans-serif" font-size="14" lengthAdjust="spacing" textLength="138.2021" x="155.45" y="539.5314">Sinflow : ListPointer</text><text fill="#000000" font-family="sans-serif" font-size="14" lengthAdjust="spacing" textLength="114.502" x="155.45" y="555.8282">id_ch : IDPointer</text><line style="stroke:#181818;stroke-width:0.5;" x1="150.45" x2="308.6121" y1="563.13" y2="563.13"/><text fill="#000000" font-family="sans-serif" font-size="14" lengthAdjust="spacing" textLength="148.1621" x="155.45" y="580.1251">__init__(i, j, Z, id_pnt)</text><text fill="#000000" font-family="sans-serif" font-size="14" lengthAdjust="spacing" textLength="67.9355" x="155.45" y="596.422">__repr__()</text></g><!--class DrainagePointInflow--><g id="elem_DrainagePointInflow"><rect codeLine="30" fill="#F1F1F1" height="113.1875" id="DrainagePointInflow" rx="2.5" ry="2.5" style="stroke:#181818;stroke-width:0.5;" width="173.0527" x="7" y="802.95"/><ellipse cx="22" cy="818.95" fill="#ADD1B2" rx="11" ry="11" style="stroke:#181818;stroke-width:1;"/><path d="M24.9688,824.5906 Q24.3906,824.8875 23.75,825.0281 Q23.1094,825.1844 22.4063,825.1844 Q19.9063,825.1844 18.5781,823.5438 Q17.2656,821.8875 17.2656,818.7625 Q17.2656,815.6375 18.5781,813.9813 Q19.9063,812.325 22.4063,812.325 Q23.1094,812.325 23.75,812.4813 Q24.4063,812.6375 24.9688,812.9344 L24.9688,815.6531 Q24.3438,815.075 23.75,814.8094 Q23.1563,814.5281 22.5313,814.5281 Q21.1875,814.5281 20.5,815.6063 Q19.8125,816.6688 19.8125,818.7625 Q19.8125,820.8563 20.5,821.9344 Q21.1875,822.9969 22.5313,822.9969 Q23.1563,822.9969 23.75,822.7313 Q24.3438,822.45 24.9688,821.8719 L24.9688,824.5906 Z " fill="#000000"/><text fill="#000000" font-family="sans-serif" font-size="14" lengthAdjust="spacing" textLength="141.0527" x="36" y="823.7967">DrainagePointInflow</text><line style="stroke:#181818;stroke-width:0.5;" x1="8" x2="179.0527" y1="834.95" y2="834.95"/><text fill="#000000" font-family="sans-serif" font-size="14" lengthAdjust="spacing" textLength="58.4336" x="13" y="851.9451">ninf : int</text><text fill="#000000" font-family="sans-serif" font-size="14" lengthAdjust="spacing" textLength="75.7764" x="13" y="868.242">inflow : list</text><line style="stroke:#181818;stroke-width:0.5;" x1="8" x2="179.0527" y1="875.5438" y2="875.5438"/><text fill="#000000" font-family="sans-serif" font-size="14" lengthAdjust="spacing" textLength="61.0654" x="13" y="892.5389">__init__()</text><text fill="#000000" font-family="sans-serif" font-size="14" lengthAdjust="spacing" textLength="67.9355" x="13" y="908.8357">__repr__()</text></g><!--class DrainageNetwork--><g id="elem_DrainageNetwork"><rect codeLine="37" fill="#F1F1F1" height="308.75" id="DrainageNetwork" rx="2.5" ry="2.5" style="stroke:#181818;stroke-width:0.5;" width="163.915" x="214.57" y="705.17"/><ellipse cx="233.8468" cy="721.17" fill="#ADD1B2" rx="11" ry="11" style="stroke:#181818;stroke-width:1;"/><path d="M236.8155,726.8106 Q236.2374,727.1075 235.5968,727.2481 Q234.9561,727.4044 234.253,727.4044 Q231.753,727.4044 230.4249,725.7638 Q229.1124,724.1075 229.1124,720.9825 Q229.1124,717.8575 230.4249,716.2013 Q231.753,714.545 234.253,714.545 Q234.9561,714.545 235.5968,714.7013 Q236.253,714.8575 236.8155,715.1544 L236.8155,717.8731 Q236.1905,717.295 235.5968,717.0294 Q235.003,716.7481 234.378,716.7481 Q233.0343,716.7481 232.3468,717.8263 Q231.6593,718.8888 231.6593,720.9825 Q231.6593,723.0763 232.3468,724.1544 Q233.0343,725.2169 234.378,725.2169 Q235.003,725.2169 235.5968,724.9513 Q236.1905,724.67 236.8155,724.0919 L236.8155,726.8106 Z " fill="#000000"/><text fill="#000000" font-family="sans-serif" font-size="14" lengthAdjust="spacing" textLength="122.4111" x="248.7971" y="726.0167">DrainageNetwork</text><line style="stroke:#181818;stroke-width:0.5;" x1="215.57" x2="377.485" y1="737.17" y2="737.17"/><text fill="#000000" font-family="sans-serif" font-size="14" lengthAdjust="spacing" textLength="114.502" x="220.57" y="754.1651">id_ch : IDPointer</text><text fill="#000000" font-family="sans-serif" font-size="14" lengthAdjust="spacing" textLength="53.2451" x="220.57" y="770.462">nel : int</text><text fill="#000000" font-family="sans-serif" font-size="14" lengthAdjust="spacing" textLength="138.0381" x="220.57" y="786.7589">id_pnts : ListPointer</text><text fill="#000000" font-family="sans-serif" font-size="14" lengthAdjust="spacing" textLength="151.915" x="220.57" y="803.0557">id_start_pt : IDPointer</text><text fill="#000000" font-family="sans-serif" font-size="14" lengthAdjust="spacing" textLength="145.6807" x="220.57" y="819.3526">id_end_pt : IDPointer</text><text fill="#000000" font-family="sans-serif" font-size="14" lengthAdjust="spacing" textLength="89.6943" x="220.57" y="835.6495">length : float</text><text fill="#000000" font-family="sans-serif" font-size="14" lengthAdjust="spacing" textLength="144.4297" x="220.57" y="851.9464">id_ch_out : IDPointer</text><text fill="#000000" font-family="sans-serif" font-size="14" lengthAdjust="spacing" textLength="69.3779" x="220.57" y="868.2432">n_jun : int</text><text fill="#000000" font-family="sans-serif" font-size="14" lengthAdjust="spacing" textLength="120.2578" x="220.57" y="884.5401">id_in : ListPointer</text><text fill="#000000" font-family="sans-serif" font-size="14" lengthAdjust="spacing" textLength="79.5703" x="220.57" y="900.837">n_path : int</text><text fill="#000000" font-family="sans-serif" font-size="14" lengthAdjust="spacing" textLength="139.3232" x="220.57" y="917.1339">id_path : ListPointer</text><text fill="#000000" font-family="sans-serif" font-size="14" lengthAdjust="spacing" textLength="132.8701" x="220.57" y="933.4307">id_endo : IDPointer</text><text fill="#000000" font-family="sans-serif" font-size="14" lengthAdjust="spacing" textLength="55.0225" x="220.57" y="949.7276">sso : int</text><text fill="#000000" font-family="sans-serif" font-size="14" lengthAdjust="spacing" textLength="56.6016" x="220.57" y="966.0245">hso : int</text><line style="stroke:#181818;stroke-width:0.5;" x1="215.57" x2="377.485" y1="973.3263" y2="973.3263"/><text fill="#000000" font-family="sans-serif" font-size="14" lengthAdjust="spacing" textLength="127.6885" x="220.57" y="990.3214">__init__(id_ch, nel)</text><text fill="#000000" font-family="sans-serif" font-size="14" lengthAdjust="spacing" textLength="67.9355" x="220.57" y="1006.6182">__repr__()</text></g><!--class EndoPoint--><g id="elem_EndoPoint"><rect codeLine="56" fill="#F1F1F1" height="178.375" id="EndoPoint" rx="2.5" ry="2.5" style="stroke:#181818;stroke-width:0.5;" width="165.8291" x="344.61" y="343.86"/><ellipse cx="388.1393" cy="359.86" fill="#ADD1B2" rx="11" ry="11" style="stroke:#181818;stroke-width:1;"/><path d="M391.108,365.5006 Q390.5299,365.7975 389.8893,365.9381 Q389.2487,366.0944 388.5455,366.0944 Q386.0455,366.0944 384.7174,364.4538 Q383.4049,362.7975 383.4049,359.6725 Q383.4049,356.5475 384.7174,354.8913 Q386.0455,353.235 388.5455,353.235 Q389.2487,353.235 389.8893,353.3913 Q390.5455,353.5475 391.108,353.8444 L391.108,356.5631 Q390.483,355.985 389.8893,355.7194 Q389.2955,355.4381 388.6705,355.4381 Q387.3268,355.4381 386.6393,356.5163 Q385.9518,357.5788 385.9518,359.6725 Q385.9518,361.7663 386.6393,362.8444 Q387.3268,363.9069 388.6705,363.9069 Q389.2955,363.9069 389.8893,363.6413 Q390.483,363.36 391.108,362.7819 L391.108,365.5006 Z " fill="#000000"/><text fill="#000000" font-family="sans-serif" font-size="14" lengthAdjust="spacing" textLength="70.4307" x="408.4791" y="364.7067">EndoPoint</text><line style="stroke:#181818;stroke-width:0.5;" x1="345.61" x2="509.4391" y1="375.86" y2="375.86"/><text fill="#000000" font-family="sans-serif" font-size="14" lengthAdjust="spacing" textLength="115.1104" x="350.61" y="392.8551">id_eo : IDPointer</text><text fill="#000000" font-family="sans-serif" font-size="14" lengthAdjust="spacing" textLength="121.1807" x="350.61" y="409.152">id_pnt : IDPointer</text><text fill="#000000" font-family="sans-serif" font-size="14" lengthAdjust="spacing" textLength="94.9033" x="350.61" y="425.4489">bas_type : int</text><text fill="#000000" font-family="sans-serif" font-size="14" lengthAdjust="spacing" textLength="86.8916" x="350.61" y="441.7457">nsaddle : int</text><text fill="#000000" font-family="sans-serif" font-size="14" lengthAdjust="spacing" textLength="153.8291" x="350.61" y="458.0426">beyo_sad : ListPointer</text><text fill="#000000" font-family="sans-serif" font-size="14" lengthAdjust="spacing" textLength="121.4268" x="350.61" y="474.3395">idms : ListPointer</text><line style="stroke:#181818;stroke-width:0.5;" x1="345.61" x2="509.4391" y1="481.6413" y2="481.6413"/><text fill="#000000" font-family="sans-serif" font-size="14" lengthAdjust="spacing" textLength="61.0654" x="350.61" y="498.6364">__init__()</text><text fill="#000000" font-family="sans-serif" font-size="14" lengthAdjust="spacing" textLength="67.9355" x="350.61" y="514.9332">__repr__()</text></g><!--class RidgePoint--><g id="elem_RidgePoint"><rect codeLine="67" fill="#F1F1F1" height="357.6406" id="RidgePoint" rx="2.5" ry="2.5" style="stroke:#181818;stroke-width:0.5;" width="160.1621" x="532.45" y="680.72"/><ellipse cx="571.2543" cy="696.72" fill="#ADD1B2" rx="11" ry="11" style="stroke:#181818;stroke-width:1;"/><path d="M574.223,702.3606 Q573.6449,702.6575 573.0043,702.7981 Q572.3637,702.9544 571.6605,702.9544 Q569.1605,702.9544 567.8324,701.3138 Q566.5199,699.6575 566.5199,696.5325 Q566.5199,693.4075 567.8324,691.7513 Q569.1605,690.095 571.6605,690.095 Q572.3637,690.095 573.0043,690.2513 Q573.6605,690.4075 574.223,690.7044 L574.223,693.4231 Q573.598,692.845 573.0043,692.5794 Q572.4105,692.2981 571.7855,692.2981 Q570.4418,692.2981 569.7543,693.3763 Q569.0668,694.4388 569.0668,696.5325 Q569.0668,698.6263 569.7543,699.7044 Q570.4418,700.7669 571.7855,700.7669 Q572.4105,700.7669 573.0043,700.5013 Q573.598,700.22 574.223,699.6419 L574.223,702.3606 Z " fill="#000000"/><text fill="#000000" font-family="sans-serif" font-size="14" lengthAdjust="spacing" textLength="75.2637" x="590.5441" y="701.5667">RidgePoint</text><line style="stroke:#181818;stroke-width:0.5;" x1="533.45" x2="691.6121" y1="712.72" y2="712.72"/><text fill="#000000" font-family="sans-serif" font-size="14" lengthAdjust="spacing" textLength="35.7588" x="538.45" y="729.7151">i : int</text><text fill="#000000" font-family="sans-serif" font-size="14" lengthAdjust="spacing" textLength="35.7588" x="538.45" y="746.012">j : int</text><text fill="#000000" font-family="sans-serif" font-size="14" lengthAdjust="spacing" textLength="54.6602" x="538.45" y="762.3089">Z : float</text><text fill="#000000" font-family="sans-serif" font-size="14" lengthAdjust="spacing" textLength="74.8945" x="538.45" y="778.6057">id_pnt : int</text><text fill="#000000" font-family="sans-serif" font-size="14" lengthAdjust="spacing" textLength="67.5938" x="538.45" y="794.9026">md : float</text><text fill="#000000" font-family="sans-serif" font-size="14" lengthAdjust="spacing" textLength="135.8574" x="538.45" y="811.1995">id_drpt1 : IDPointer</text><text fill="#000000" font-family="sans-serif" font-size="14" lengthAdjust="spacing" textLength="135.8574" x="538.45" y="827.4964">id_drpt2 : IDPointer</text><text fill="#000000" font-family="sans-serif" font-size="14" lengthAdjust="spacing" textLength="74.4092" x="538.45" y="843.7932">A_in : float</text><text fill="#000000" font-family="sans-serif" font-size="14" lengthAdjust="spacing" textLength="107.8096" x="538.45" y="860.0901">A_in_min : float</text><text fill="#000000" font-family="sans-serif" font-size="14" lengthAdjust="spacing" textLength="58.2285" x="538.45" y="876.387">nen : int</text><text fill="#000000" font-family="sans-serif" font-size="14" lengthAdjust="spacing" textLength="69.3779" x="538.45" y="892.6839">n_jun : int</text><text fill="#000000" font-family="sans-serif" font-size="14" lengthAdjust="spacing" textLength="146.6309" x="538.45" y="908.9807">id_neigh : ListPointer</text><text fill="#000000" font-family="sans-serif" font-size="14" lengthAdjust="spacing" textLength="118.002" x="538.45" y="925.2776">id_sdl : IDPointer</text><text fill="#000000" font-family="sans-serif" font-size="14" lengthAdjust="spacing" textLength="59.2744" x="538.45" y="941.5745">nrdl : int</text><text fill="#000000" font-family="sans-serif" font-size="14" lengthAdjust="spacing" textLength="126.0273" x="538.45" y="957.8714">id_rdl : ListPointer</text><text fill="#000000" font-family="sans-serif" font-size="14" lengthAdjust="spacing" textLength="61.2021" x="538.45" y="974.1682">junc : int</text><text fill="#000000" font-family="sans-serif" font-size="14" lengthAdjust="spacing" textLength="77.9912" x="538.45" y="990.4651">n_ptsa : int</text><line style="stroke:#181818;stroke-width:0.5;" x1="533.45" x2="691.6121" y1="997.7669" y2="997.7669"/><text fill="#000000" font-family="sans-serif" font-size="14" lengthAdjust="spacing" textLength="148.1621" x="538.45" y="1014.762">__init__(i, j, Z, id_pnt)</text><text fill="#000000" font-family="sans-serif" font-size="14" lengthAdjust="spacing" textLength="67.9355" x="538.45" y="1031.0589">__repr__()</text></g><!--class SaddlePoint--><g id="elem_SaddlePoint"><rect codeLine="89" fill="#F1F1F1" height="178.375" id="SaddlePoint" rx="2.5" ry="2.5" style="stroke:#181818;stroke-width:0.5;" width="175.8506" x="429.6" y="7"/><ellipse cx="471.9819" cy="23" fill="#ADD1B2" rx="11" ry="11" style="stroke:#181818;stroke-width:1;"/><path d="M474.9506,28.6406 Q474.3725,28.9375 473.7319,29.0781 Q473.0913,29.2344 472.3881,29.2344 Q469.8881,29.2344 468.56,27.5938 Q467.2475,25.9375 467.2475,22.8125 Q467.2475,19.6875 468.56,18.0313 Q469.8881,16.375 472.3881,16.375 Q473.0913,16.375 473.7319,16.5313 Q474.3881,16.6875 474.9506,16.9844 L474.9506,19.7031 Q474.3256,19.125 473.7319,18.8594 Q473.1381,18.5781 472.5131,18.5781 Q471.1694,18.5781 470.4819,19.6563 Q469.7944,20.7188 469.7944,22.8125 Q469.7944,24.9063 470.4819,25.9844 Q471.1694,27.0469 472.5131,27.0469 Q473.1381,27.0469 473.7319,26.7813 Q474.3256,26.5 474.9506,25.9219 L474.9506,28.6406 Z " fill="#000000"/><text fill="#000000" font-family="sans-serif" font-size="14" lengthAdjust="spacing" textLength="83.002" x="492.0667" y="27.8467">SaddlePoint</text><line style="stroke:#181818;stroke-width:0.5;" x1="430.6" x2="604.4506" y1="39" y2="39"/><text fill="#000000" font-family="sans-serif" font-size="14" lengthAdjust="spacing" textLength="74.8945" x="435.6" y="55.9951">id_pnt : int</text><text fill="#000000" font-family="sans-serif" font-size="14" lengthAdjust="spacing" textLength="126.9502" x="435.6" y="72.292">id_rdpt : IDPointer</text><text fill="#000000" font-family="sans-serif" font-size="14" lengthAdjust="spacing" textLength="135.8574" x="435.6" y="88.5889">id_rdpt2 : IDPointer</text><text fill="#000000" font-family="sans-serif" font-size="14" lengthAdjust="spacing" textLength="158.751" x="435.6" y="104.8857">id_cis_endo : IDPointer</text><text fill="#000000" font-family="sans-serif" font-size="14" lengthAdjust="spacing" textLength="163.8506" x="435.6" y="121.1826">id_trans_out : IDPointer</text><text fill="#000000" font-family="sans-serif" font-size="14" lengthAdjust="spacing" textLength="96.585" x="435.6" y="137.4795">A_endo : float</text><line style="stroke:#181818;stroke-width:0.5;" x1="430.6" x2="604.4506" y1="144.7813" y2="144.7813"/><text fill="#000000" font-family="sans-serif" font-size="14" lengthAdjust="spacing" textLength="104.0908" x="435.6" y="161.7764">__init__(id_pnt)</text><text fill="#000000" font-family="sans-serif" font-size="14" lengthAdjust="spacing" textLength="67.9355" x="435.6" y="178.0732">__repr__()</text></g><!--class OutNetwork--><g id="elem_OutNetwork"><rect codeLine="100" fill="#F1F1F1" height="113.1875" id="OutNetwork" rx="2.5" ry="2.5" style="stroke:#181818;stroke-width:0.5;" width="150.0381" x="221.51" y="1172.4"/><ellipse cx="251.901" cy="1188.4" fill="#ADD1B2" rx="11" ry="11" style="stroke:#181818;stroke-width:1;"/><path d="M254.8697,1194.0406 Q254.2916,1194.3375 253.651,1194.4781 Q253.0103,1194.6344 252.3072,1194.6344 Q249.8072,1194.6344 248.4791,1192.9938 Q247.1666,1191.3375 247.1666,1188.2125 Q247.1666,1185.0875 248.4791,1183.4313 Q249.8072,1181.775 252.3072,1181.775 Q253.0103,1181.775 253.651,1181.9313 Q254.3072,1182.0875 254.8697,1182.3844 L254.8697,1185.1031 Q254.2447,1184.525 253.651,1184.2594 Q253.0572,1183.9781 252.4322,1183.9781 Q251.0885,1183.9781 250.401,1185.0563 Q249.7135,1186.1188 249.7135,1188.2125 Q249.7135,1190.3063 250.401,1191.3844 Q251.0885,1192.4469 252.4322,1192.4469 Q253.0572,1192.4469 253.651,1192.1813 Q254.2447,1191.9 254.8697,1191.3219 L254.8697,1194.0406 Z " fill="#000000"/><text fill="#000000" font-family="sans-serif" font-size="14" lengthAdjust="spacing" textLength="83.8359" x="269.3212" y="1193.2467">OutNetwork</text><line style="stroke:#181818;stroke-width:0.5;" x1="222.51" x2="370.5481" y1="1204.4" y2="1204.4"/><text fill="#000000" font-family="sans-serif" font-size="14" lengthAdjust="spacing" textLength="53.2451" x="227.51" y="1221.3951">nel : int</text><text fill="#000000" font-family="sans-serif" font-size="14" lengthAdjust="spacing" textLength="138.0381" x="227.51" y="1237.692">id_pnts : ListPointer</text><line style="stroke:#181818;stroke-width:0.5;" x1="222.51" x2="370.5481" y1="1244.9938" y2="1244.9938"/><text fill="#000000" font-family="sans-serif" font-size="14" lengthAdjust="spacing" textLength="82.4414" x="227.51" y="1261.9889">__init__(nel)</text><text fill="#000000" font-family="sans-serif" font-size="14" lengthAdjust="spacing" textLength="67.9355" x="227.51" y="1278.2857">__repr__()</text></g><!--class RidgeNetwork--><g id="elem_RidgeNetwork"><rect codeLine="107" fill="#F1F1F1" height="227.2656" id="RidgeNetwork" rx="2.5" ry="2.5" style="stroke:#181818;stroke-width:0.5;" width="151.1387" x="536.96" y="1115.36"/><ellipse cx="561.2663" cy="1131.36" fill="#ADD1B2" rx="11" ry="11" style="stroke:#181818;stroke-width:1;"/><path d="M564.235,1137.0006 Q563.6569,1137.2975 563.0163,1137.4381 Q562.3757,1137.5944 561.6725,1137.5944 Q559.1725,1137.5944 557.8444,1135.9538 Q556.5319,1134.2975 556.5319,1131.1725 Q556.5319,1128.0475 557.8444,1126.3913 Q559.1725,1124.735 561.6725,1124.735 Q562.3757,1124.735 563.0163,1124.8913 Q563.6725,1125.0475 564.235,1125.3444 L564.235,1128.0631 Q563.61,1127.485 563.0163,1127.2194 Q562.4225,1126.9381 561.7975,1126.9381 Q560.4538,1126.9381 559.7663,1128.0163 Q559.0788,1129.0788 559.0788,1131.1725 Q559.0788,1133.2663 559.7663,1134.3444 Q560.4538,1135.4069 561.7975,1135.4069 Q562.4225,1135.4069 563.0163,1135.1413 Q563.61,1134.86 564.235,1134.2819 L564.235,1137.0006 Z " fill="#000000"/><text fill="#000000" font-family="sans-serif" font-size="14" lengthAdjust="spacing" textLength="98.458" x="577.3344" y="1136.2067">RidgeNetwork</text><line style="stroke:#181818;stroke-width:0.5;" x1="537.96" x2="687.0987" y1="1147.36" y2="1147.36"/><text fill="#000000" font-family="sans-serif" font-size="14" lengthAdjust="spacing" textLength="116.4639" x="542.96" y="1164.3551">id_rdl : IDPointer</text><text fill="#000000" font-family="sans-serif" font-size="14" lengthAdjust="spacing" textLength="89.6943" x="542.96" y="1180.652">length : float</text><text fill="#000000" font-family="sans-serif" font-size="14" lengthAdjust="spacing" textLength="53.2451" x="542.96" y="1196.9489">nel : int</text><text fill="#000000" font-family="sans-serif" font-size="14" lengthAdjust="spacing" textLength="138.0381" x="542.96" y="1213.2457">id_pnts : ListPointer</text><text fill="#000000" font-family="sans-serif" font-size="14" lengthAdjust="spacing" textLength="94.3633" x="542.96" y="1229.5426">Zmean : float</text><text fill="#000000" font-family="sans-serif" font-size="14" lengthAdjust="spacing" textLength="114.5361" x="542.96" y="1245.8395">nrdpt_down : int</text><text fill="#000000" font-family="sans-serif" font-size="14" lengthAdjust="spacing" textLength="85.5176" x="542.96" y="1262.1364">n_down : int</text><text fill="#000000" font-family="sans-serif" font-size="14" lengthAdjust="spacing" textLength="139.1387" x="542.96" y="1278.4332">Zmean_down : float</text><text fill="#000000" font-family="sans-serif" font-size="14" lengthAdjust="spacing" textLength="73.0078" x="542.96" y="1294.7301">jun_el : int</text><line style="stroke:#181818;stroke-width:0.5;" x1="537.96" x2="687.0987" y1="1302.0319" y2="1302.0319"/><text fill="#000000" font-family="sans-serif" font-size="14" lengthAdjust="spacing" textLength="99.374" x="542.96" y="1319.027">__init__(id_rdl)</text><text fill="#000000" font-family="sans-serif" font-size="14" lengthAdjust="spacing" textLength="67.9355" x="542.96" y="1335.3239">__repr__()</text></g><!--link DrainagePoint to DrainagePointInflow--><g id="link_DrainagePoint_DrainagePointInflow"><path codeLine="122" d="M175.09,603.96 C152.39,674.81 127.59,752.23 111.37,802.86 " fill="#FFFFFF" fill-opacity="0.00000" id="DrainagePoint-DrainagePointInflow" style="stroke:#181818;stroke-width:1;"/><text fill="#000000" font-family="sans-serif" font-size="13" lengthAdjust="spacing" textLength="38.6255" x="162.53" y="646.7869">inflow</text><text fill="#000000" font-family="sans-serif" font-size="13" lengthAdjust="spacing" textLength="8.271" x="164.6302" y="623.5563">1</text><text fill="#000000" font-family="sans-serif" font-size="13" lengthAdjust="spacing" textLength="6.5" x="107.3039" y="791.7119">*</text></g><!--link DrainagePoint to DrainageNetwork--><g id="link_DrainagePoint_DrainageNetwork"><path codeLine="123" d="M256.34,603.96 C261.61,637.31 267.1,672.11 272.27,704.89 " fill="#FFFFFF" fill-opacity="0.00000" id="DrainagePoint-DrainageNetwork" style="stroke:#181818;stroke-width:1;"/><text fill="#000000" font-family="sans-serif" font-size="13" lengthAdjust="spacing" textLength="68.2627" x="264.53" y="646.7869">belongs to</text><text fill="#000000" font-family="sans-serif" font-size="13" lengthAdjust="spacing" textLength="8.271" x="249.308" y="623.5563">1</text><text fill="#000000" font-family="sans-serif" font-size="13" lengthAdjust="spacing" textLength="6.5" x="264.9618" y="694.1057">*</text></g><!--link DrainageNetwork to DrainageNetwork--><g id="link_DrainageNetwork_DrainageNetwork"><path codeLine="124" d="M378.77,819.47 C398.69,822.52 413.48,835.88 413.48,859.54 C413.48,883.21 398.69,896.56 378.77,899.61 " fill="#FFFFFF" fill-opacity="0.00000" id="DrainageNetwork-DrainageNetwork" style="stroke:#181818;stroke-width:1;"/><text fill="#000000" font-family="sans-serif" font-size="13" lengthAdjust="spacing" textLength="67.3359" x="419.48" y="864.1069">tributaries</text><text fill="#000000" font-family="sans-serif" font-size="13" lengthAdjust="spacing" textLength="8.271" x="386.463" y="812.3057">1</text><text fill="#000000" font-family="sans-serif" font-size="13" lengthAdjust="spacing" textLength="6.5" x="386.3842" y="899.5831">*</text></g><!--link DrainageNetwork to OutNetwork--><g id="link_DrainageNetwork_OutNetwork"><path codeLine="125" d="M296.53,1014.25 C296.53,1070.3 296.53,1130.18 296.53,1172.26 " fill="#FFFFFF" fill-opacity="0.00000" id="DrainageNetwork-OutNetwork" style="stroke:#181818;stroke-width:1;"/><text fill="#000000" font-family="sans-serif" font-size="13" lengthAdjust="spacing" textLength="104.9902" x="297.53" y="1081.4269">outflow network</text><text fill="#000000" font-family="sans-serif" font-size="13" lengthAdjust="spacing" textLength="8.271" x="288.3429" y="1034.1769">1</text><text fill="#000000" font-family="sans-serif" font-size="13" lengthAdjust="spacing" textLength="6.5" x="290.195" y="1161.5065">*</text></g><!--link RidgePoint to RidgeNetwork--><g id="link_RidgePoint_RidgeNetwork"><path codeLine="127" d="M612.53,1038.62 C612.53,1064.61 612.53,1090.75 612.53,1114.96 " fill="#FFFFFF" fill-opacity="0.00000" id="RidgePoint-RidgeNetwork" style="stroke:#181818;stroke-width:1;"/><text fill="#000000" font-family="sans-serif" font-size="13" lengthAdjust="spacing" textLength="68.2627" x="613.53" y="1081.4269">belongs to</text><text fill="#000000" font-family="sans-serif" font-size="13" lengthAdjust="spacing" textLength="8.271" x="604.3669" y="1058.561">1</text><text fill="#000000" font-family="sans-serif" font-size="13" lengthAdjust="spacing" textLength="6.5" x="606.3539" y="1104.2455">*</text></g><!--link RidgeNetwork to RidgeNetwork--><g id="link_RidgeNetwork_RidgeNetwork"><path codeLine="128" d="M688.49,1200.77 C708.22,1202.5 723.1,1211.91 723.1,1229 C723.1,1246.08 708.22,1255.49 688.49,1257.23 " fill="#FFFFFF" fill-opacity="0.00000" id="RidgeNetwork-RidgeNetwork" style="stroke:#181818;stroke-width:1;"/><text fill="#000000" font-family="sans-serif" font-size="13" lengthAdjust="spacing" textLength="85.2554" x="729.1" y="1233.5669">connected to</text><text fill="#000000" font-family="sans-serif" font-size="13" lengthAdjust="spacing" textLength="8.271" x="696.1242" y="1194.4384">1</text><text fill="#000000" font-family="sans-serif" font-size="13" lengthAdjust="spacing" textLength="6.5" x="696.0398" y="1256.2797">*</text></g><!--link SaddlePoint to RidgePoint--><g id="link_SaddlePoint_RidgePoint"><path codeLine="130" d="M578.64,185.55 C583.38,195.3 587.49,205.34 590.53,215.38 C636.54,367.5 638.21,549.15 630.61,680.54 " fill="#FFFFFF" fill-opacity="0.00000" id="SaddlePoint-RidgePoint" style="stroke:#181818;stroke-width:1;"/><text fill="#000000" font-family="sans-serif" font-size="13" lengthAdjust="spacing" textLength="97.2144" x="634.53" y="437.6169">corresponds to</text><text fill="#000000" font-family="sans-serif" font-size="13" lengthAdjust="spacing" textLength="8.271" x="575.2021" y="205.3409">1</text><text fill="#000000" font-family="sans-serif" font-size="13" lengthAdjust="spacing" textLength="8.271" x="623.2097" y="669.7417">1</text></g><!--link SaddlePoint to RidgePoint--><g id="link_SaddlePoint_RidgePoint"><path codeLine="131" d="M605.94,137.2 C655.28,164.72 712.35,206.44 740.53,262.38 C808.78,397.87 775.52,456.11 740.53,603.72 C730.56,645.75 712.52,688.73 693.07,727.14 " fill="#FFFFFF" fill-opacity="0.00000" id="SaddlePoint-RidgePoint-1" style="stroke:#181818;stroke-width:1;"/><text fill="#000000" font-family="sans-serif" font-size="13" lengthAdjust="spacing" textLength="111.1665" x="780.53" y="437.6169">secondary if split</text><text fill="#000000" font-family="sans-serif" font-size="13" lengthAdjust="spacing" textLength="8.271" x="613.3151" y="136.9427">1</text><text fill="#000000" font-family="sans-serif" font-size="13" lengthAdjust="spacing" textLength="8.271" x="700.6113" y="711.7529">1</text></g><!--link SaddlePoint to EndoPoint--><g id="link_SaddlePoint_EndoPoint"><path codeLine="132" d="M434.95,185.57 C429.17,195.14 424.19,205.13 420.53,215.38 C406.04,255.87 405.88,303.37 410.14,343.56 " fill="#FFFFFF" fill-opacity="0.00000" id="SaddlePoint-EndoPoint" style="stroke:#181818;stroke-width:1;"/><text fill="#000000" font-family="sans-serif" font-size="13" lengthAdjust="spacing" textLength="164.3154" x="421.53" y="228.4469">connected to (endorheic)</text><text fill="#000000" font-family="sans-serif" font-size="13" lengthAdjust="spacing" textLength="8.271" x="420.0618" y="205.3625">1</text><text fill="#000000" font-family="sans-serif" font-size="13" lengthAdjust="spacing" textLength="8.271" x="400.4467" y="332.9035">1</text></g><!--link SaddlePoint to DrainagePoint--><g id="link_SaddlePoint_DrainagePoint"><path codeLine="133" d="M429.39,176.19 C423.86,179.56 418.22,182.66 412.53,185.38 C349.6,215.43 306.35,164.63 258.53,215.38 C245.97,228.71 237.11,244.71 231.01,261.9 " fill="#FFFFFF" fill-opacity="0.00000" id="SaddlePoint-DrainagePoint" style="stroke:#181818;stroke-width:1;"/><text fill="#000000" font-family="sans-serif" font-size="13" lengthAdjust="spacing" textLength="147.5957" x="259.53" y="228.4469">connected to (outflow)</text><text fill="#000000" font-family="sans-serif" font-size="13" lengthAdjust="spacing" textLength="8.271" x="413.1963" y="179.7201">1</text><text fill="#000000" font-family="sans-serif" font-size="13" lengthAdjust="spacing" textLength="8.271" x="222.9094" y="251.4328">1</text></g><!--link DrainagePoint to RidgePoint--><g id="link_DrainagePoint_RidgePoint"><path codeLine="135" d="M309.93,585.55 C315.52,591.99 321.38,598.09 327.53,603.72 C387.19,658.4 430.99,628.16 492.53,680.72 C506.69,692.82 519.89,706.97 531.98,721.92 " fill="#FFFFFF" fill-opacity="0.00000" id="DrainagePoint-RidgePoint" style="stroke:#181818;stroke-width:1;"/><text fill="#000000" font-family="sans-serif" font-size="13" lengthAdjust="spacing" textLength="77.9937" x="439.53" y="646.7869">neighboring</text><text fill="#000000" font-family="sans-serif" font-size="13" lengthAdjust="spacing" textLength="8.271" x="317.723" y="595.99">1</text><text fill="#000000" font-family="sans-serif" font-size="13" lengthAdjust="spacing" textLength="6.5" x="518.0404" y="705.1614">*</text></g><!--SRC=[hLN1RkCW4BtxAr1EpIezfCVSAdKFbQhTghtbWeWXDbaC5k16KRN_lcDiru2nwyFwP6Pup6FcpP0BOWnwVdfLN5gcqMU6uFiWec7PtopBdVk56xkuuKaJBad1tAP-2qS712ltV_7-Z_1_5efqAqvn3P3HVHQKQrX_KHgj62B5ZaVCfOTkQX4SJwErQIhAFc86J5Bb7IAvF7jBM0br1OEN1kTucVMypteWMbvERe7X5jnYVCTtwB93nrsVbstlrQpMuDtEPFovY_Qvo5u0ap3OzwV_OlQgz9-XeadkaWa_dEDjqZStbcYBQpivewj1oYEOB6mP5omliMgccoM-D38auzGHKv6u9kvGdtLdIR3krH66CiPNJ1cincgsJ7TjXkPJ_HDE3ze60gfKWhes2SqdOh2zrSmNho6K2jzoOZU5mPgyNPKgrGg5l77wNzgzeh6VwjhkKmbe7Gzp0s0yeZNWAZ9AvkiYeHF9U35JVqF5L6cQHghl334SukH1uDeQafJAsiP_T-MD51FcrB59TrbhVqWvScxIGWUVrKIQPCCz3fWnqxxu5o_okx7XU5axIBuYBFQL4-XaVkb4BHCZPYsLOyL89BGsmvYgQwYtoE1mWt44Wrfm4DbF9b1FtJOBtzxDVeFkxz7cnoRvH1pwz-1xr92w0ymFeMHXa5LPx5p4MSrF3KnypimIqDF10O7874_PMRBCcpCU9YXkm33mp2Do9INBBQCj9lDxQi3iD_wCQn5QCrChILsSDH3380mb-eRu6PbQS3i76n-1a1gwQ_jBbupdspbiMCaOtoTqkw2JWBERWoUbkIp-0G00]--></g></svg>